<svg width="20" height="20" viewBox="0 0 20 20" fill="none" xmlns="http://www.w3.org/2000/svg">
<path d="M8.33342 9.16667L17.5001 9.91667C17.7063 9.95722 17.8896 10.0742 18.0133 10.2442C18.1369 10.4142 18.1917 10.6246 18.1667 10.8333L17.6126 14.2983C17.5813 14.4941 17.4811 14.6723 17.3302 14.8009C17.1793 14.9295 16.9875 15.0001 16.7892 15H16.6667M16.6667 15C16.6667 15.9205 15.9206 16.6667 15.0001 16.6667C14.0796 16.6667 13.3334 15.9205 13.3334 15M16.6667 15C16.6667 14.0795 15.9206 13.3333 15.0001 13.3333C14.0796 13.3333 13.3334 14.0795 13.3334 15M13.3334 15H9.16675M15.0001 4.16667C14.7791 4.16667 14.5671 4.25446 14.4108 4.41074C14.2545 4.56702 14.1667 4.77899 14.1667 5V9.64417M2.50008 3.33333H9.27425C9.4754 3.33345 9.66973 3.40632 9.82136 3.5385C9.97299 3.67068 10.0717 3.85324 10.0992 4.0525L10.8334 9.37167M3.33341 9.16667V3.33333M5.83341 12.5H5.84175M6.66675 8.41667V3.33333M10.0001 12.5C10.0001 14.8012 8.1346 16.6667 5.83341 16.6667C3.53223 16.6667 1.66675 14.8012 1.66675 12.5C1.66675 10.1988 3.53223 8.33333 5.83341 8.33333C8.1346 8.33333 10.0001 10.1988 10.0001 12.5Z" stroke="#27272A" stroke-width="1.5" stroke-linecap="round" stroke-linejoin="round"/>
</svg>
